<svg width="1410" height="298" viewBox="0 0 1410 298" fill="none" xmlns="http://www.w3.org/2000/svg">
<path d="M129.6 297.6C47.2 297.6 0.8 235.2 0.8 148.8C0.8 62.8 53.2 0.399987 134.8 0.399987C208.8 0.399987 248 40 257.2 94.4H211.2C203.6 58.4 176.8 38.4 134.4 38.4C71.2 38.4 46.8 95.2 46.8 148.8C46.8 202.8 65.2 259.6 132 259.6C179.2 259.6 216.8 226.8 217.2 179.2H132.8V142.4H262V292H231.6L220.8 252.4H220C200 281.6 173.2 297.6 129.6 297.6ZM409.78 292H326.943V271.326H306.27V250.652H285.596V209.163H306.27V188.489H347.617V167.815H430.596V147H409.78V126.326H347.617V147H285.596V126.326H306.27V105.652H326.943V84.9785H430.596V105.652H451.27V126.326H471.943V292H430.596V271.326H409.78V292ZM337.28 250.652H409.78V229.979H430.596V188.489H409.78V209.163H337.28V250.652ZM531.439 292H490.091V2H531.439V292ZM673.771 292H590.934V271.326H570.26V250.652H549.586V209.163H570.26V188.489H611.608V167.815H694.586V147H673.771V126.326H611.608V147H549.586V126.326H570.26V105.652H590.934V84.9785H694.586V105.652H715.26V126.326H735.934V292H694.586V271.326H673.771V292ZM601.271 250.652H673.771V229.979H694.586V188.489H673.771V209.163H601.271V250.652ZM878.266 292H795.429V271.326H774.755V250.652H754.082V126.326H774.755V105.652H795.429V84.9785H878.266V105.652H899.082V2H940.429V292H899.082V271.326H878.266V292ZM816.103 250.652H878.266V229.979H899.082V147H878.266V126.326H816.103V147H795.429V229.979H816.103V250.652ZM1054.7 83.2C1061.9 83.2 1067.5 83.6 1073.5 84.4V122C1068.7 121.2 1065.1 120.8 1060.3 120.8C1024.7 120.8 999.103 147.6 999.103 186.4V292H959.903V88H999.103V126.8H999.903C1010.7 101.2 1027.1 83.2 1054.7 83.2ZM1132.97 51.6H1088.57V9.19999H1132.97V51.6ZM1130.17 292H1090.97V88H1130.17V292ZM1353.37 185.6C1353.37 191.2 1353.37 197.2 1352.97 200.4H1196.17C1196.97 234.4 1216.97 266 1257.37 266C1293.37 266 1307.37 242.8 1310.97 229.2H1350.97C1340.17 268.4 1310.17 298 1256.57 298C1191.77 298 1155.77 252 1155.77 189.6C1155.77 125.6 1194.17 81.6 1256.57 81.6C1318.57 81.6 1353.37 122.4 1353.37 185.6ZM1196.17 169.6H1312.57C1312.57 137.6 1290.17 113.6 1255.37 113.6C1222.57 113.6 1198.57 136 1196.17 169.6ZM1409.68 292H1370.48V5.99999H1409.68V292Z" fill="#0657E0"/>
</svg>
